<svg width="404.030029296875px" height="122.02138671875px" xmlns="http://www.w3.org/2000/svg" viewBox="47.9849853515625 13.989306640625003 404.030029296875 122.02138671875" style="background: rgba(0, 0, 0, 0);" preserveAspectRatio="xMidYMid"><defs><filter id="editing-golden" x="-100%" y="-100%" width="300%" height="300%"><feFlood flood-color="#806527" result="flood"></feFlood><feFlood flood-color="#ffea00" result="flood-light"></feFlood><feComposite operator="in" in="flood" in2="SourceAlpha" result="flood-comp"></feComposite><feGaussianBlur in="flood-comp" stdDeviation="3" result="blur"></feGaussianBlur><feOffset in="blur" dy="3" result="offset-blur"></feOffset><feComponentTransfer in="offset-blur" result="comp-blur"><feFuncA type="linear" slope="0.7" intercept="-0.1"></feFuncA></feComponentTransfer><feSpecularLighting surfaceScale="200" specularConstant="20" specularExponent="1" lighting-color="#fff" in="blur" result="specular"><fePointLight x="-250" y="-250" z="3500"></fePointLight></feSpecularLighting><feComponentTransfer in="specular" result="inspecular"><feFuncA type="linear" slope="-1" intercept="1"></feFuncA></feComponentTransfer><feComposite operator="in" in="flood-light" in2="inspecular" result="inspecular2"></feComposite><feComposite operator="in" in="inspecular2" in2="SourceAlpha" result="light"></feComposite><feMerge><feMergeNode in="comp-blur"></feMergeNode><feMergeNode in="SourceGraphic"></feMergeNode><feMergeNode in="light"></feMergeNode></feMerge></filter></defs><g filter="url(#editing-golden)"><g transform="translate(109.35999202728271, 97.45218849182129)"><path d="M27.01-10.82L27.01-10.82L27.01-10.82Q28.61-9.73 28.61-7.33L28.61-7.33L28.61-7.33Q28.61-4.93 27.39-3.39L27.39-3.39L27.39-3.39Q26.18-1.86 24.19-0.83L24.19-0.83L24.19-0.83Q20.10 1.28 15.68 1.28L15.68 1.28L15.68 1.28Q11.26 1.28 8.67 0.32L8.67 0.32L8.67 0.32Q6.08-0.64 4.35-2.43L4.35-2.43L4.35-2.43Q0.96-5.82 0.96-12.03L0.96-12.03L0.96-12.03Q0.96-21.70 6.21-27.58L6.21-27.58L6.21-27.58Q11.84-33.92 21.63-33.92L21.63-33.92L21.63-33.92Q27.71-33.92 30.72-31.36L30.72-31.36L30.72-31.36Q32.96-29.44 32.96-26.30L32.96-26.30L32.96-26.30Q32.96-15.04 13.50-15.04L13.50-15.04L13.50-15.04Q13.25-13.38 13.25-11.97L13.25-11.97L13.25-11.97Q13.25-9.02 14.56-7.90L14.56-7.90L14.56-7.90Q15.87-6.78 18.30-6.78L18.30-6.78L18.30-6.78Q20.74-6.78 23.33-7.90L23.33-7.90L23.33-7.90Q25.92-9.02 27.01-10.82ZM13.95-17.79L13.95-17.79L13.95-17.79Q18.50-17.79 21.12-20.61L21.12-20.61L21.12-20.61Q23.74-23.30 23.74-27.58L23.74-27.58L23.74-27.58Q23.74-29.06 23.20-29.86L23.20-29.86L23.20-29.86Q22.66-30.66 21.57-30.66L21.57-30.66L21.57-30.66Q20.48-30.66 19.55-30.24L19.55-30.24L19.55-30.24Q18.62-29.82 17.66-28.42L17.66-28.42L17.66-28.42Q15.30-25.22 13.95-17.79ZM55.17-17.98L55.17-17.98L55.17-17.98Q57.47-22.08 57.47-26.24L57.47-26.24L57.47-26.24Q57.47-28.99 55.49-28.99L55.49-28.99L55.49-28.99Q53.95-28.99 52.35-26.37L52.35-26.37L52.35-26.37Q50.69-23.74 50.18-20.35L50.18-20.35L46.85 0L33.60 1.28L40.13-32.64L50.69-33.92L49.54-27.46L49.54-27.46Q52.67-33.92 59.71-33.92L59.71-33.92L59.71-33.92Q63.42-33.92 65.44-32L65.44-32L65.44-32Q67.46-30.08 67.46-26.14L67.46-26.14L67.46-26.14Q67.46-22.21 64.86-19.71L64.86-19.71L64.86-19.71Q62.27-17.22 57.86-17.22L57.86-17.22L57.86-17.22Q55.94-17.22 55.17-17.98ZM88.51-17.98L88.51-17.98L88.51-17.98Q90.82-22.08 90.82-26.24L90.82-26.24L90.82-26.24Q90.82-28.99 88.83-28.99L88.83-28.99L88.83-28.99Q87.30-28.99 85.70-26.37L85.70-26.37L85.70-26.37Q84.03-23.74 83.52-20.35L83.52-20.35L80.19 0L66.94 1.28L73.47-32.64L84.03-33.92L82.88-27.46L82.88-27.46Q86.02-33.92 93.06-33.92L93.06-33.92L93.06-33.92Q96.77-33.92 98.78-32L98.78-32L98.78-32Q100.80-30.08 100.80-26.14L100.80-26.14L100.80-26.14Q100.80-22.21 98.21-19.71L98.21-19.71L98.21-19.71Q95.62-17.22 91.20-17.22L91.20-17.22L91.20-17.22Q89.28-17.22 88.51-17.98ZM115.78 1.28L115.78 1.28L115.78 1.28Q101.70 1.28 101.70-11.97L101.70-11.97L101.70-11.97Q101.70-21.38 106.88-27.46L106.88-27.46L106.88-27.46Q112.38-33.92 121.92-33.92L121.92-33.92L121.92-33.92Q128.83-33.92 132.35-30.72L132.35-30.72L132.35-30.72Q135.87-27.52 135.87-20.80L135.87-20.80L135.87-20.80Q135.87-10.56 130.37-4.61L130.37-4.61L130.37-4.61Q124.99 1.28 115.78 1.28ZM117.44-26.56L117.44-26.56L117.44-26.56Q116.67-24.83 116.06-22.24L116.06-22.24L116.06-22.24Q115.46-19.65 114.69-15.55L114.69-15.55L114.69-15.55Q113.92-11.46 113.92-6.40L113.92-6.40L113.92-6.40Q113.92-4.74 114.46-3.65L114.46-3.65L114.46-3.65Q115.01-2.56 116.48-2.56L116.48-2.56L116.48-2.56Q117.95-2.56 118.88-3.26L118.88-3.26L118.88-3.26Q119.81-3.97 120.51-5.63L120.51-5.63L120.51-5.63Q121.79-8.58 122.82-14.05L122.82-14.05L122.82-14.05Q123.84-19.52 123.94-21.89L123.94-21.89L123.94-21.89Q124.03-24.26 124.03-26.02L124.03-26.02L124.03-26.02Q124.03-27.78 123.52-28.93L123.52-28.93L123.52-28.93Q123.01-30.08 121.57-30.08L121.57-30.08L121.57-30.08Q120.13-30.08 119.17-29.18L119.17-29.18L119.17-29.18Q118.21-28.29 117.44-26.56ZM159.68-17.98L159.68-17.98L159.68-17.98Q161.98-22.08 161.98-26.24L161.98-26.24L161.98-26.24Q161.98-28.99 160-28.99L160-28.99L160-28.99Q158.46-28.99 156.86-26.37L156.86-26.37L156.86-26.37Q155.20-23.74 154.69-20.35L154.69-20.35L151.36 0L138.11 1.28L144.64-32.64L155.20-33.92L154.05-27.46L154.05-27.46Q157.18-33.92 164.22-33.92L164.22-33.92L164.22-33.92Q167.94-33.92 169.95-32L169.95-32L169.95-32Q171.97-30.08 171.97-26.14L171.97-26.14L171.97-26.14Q171.97-22.21 169.38-19.71L169.38-19.71L169.38-19.71Q166.78-17.22 162.37-17.22L162.37-17.22L162.37-17.22Q160.45-17.22 159.68-17.98ZM205.06-16.83L205.06-16.83L205.06-16.83Q205.76-15.49 205.76-12.86L205.76-12.86L205.76-12.86Q205.76-10.24 203.81-8.42L203.81-8.42L203.81-8.42Q201.86-6.59 197.57-6.59L197.57-6.59L197.18-6.59L196.16 0L196.16 0Q194.43 1.28 191.36 1.28L191.36 1.28L191.36 1.28Q187.39 1.28 186.11-1.15L186.11-1.15L186.11-1.15Q185.60-2.05 185.60-2.82L185.60-2.82L185.60-2.82Q185.60-3.71 185.73-4.74L185.73-4.74L186.18-7.17L171.46-8.70L171.46-16.77L195.39-43.58L195.39-43.52L195.46-43.58L204.35-42.62L204.35-42.62Q201.34-30.34 198.78-16.19L198.78-16.19L200.26-16.19L200.26-16.19Q203.90-16.19 205.06-16.83ZM192.19-32.83L178.30-16.64L187.97-16.32L187.97-16.32Q190.08-25.73 192.19-32.83L192.19-32.83ZM209.92-15.23L209.92-15.23L209.92-15.23Q209.92-28.16 216-35.84L216-35.84L216-35.84Q222.08-43.52 232.51-43.52L232.51-43.52L232.51-43.52Q238.08-43.52 241.28-39.36L241.28-39.36L241.28-39.36Q244.48-35.20 244.48-28.26L244.48-28.26L244.48-28.26Q244.48-21.31 242.91-15.90L242.91-15.90L242.91-15.90Q241.34-10.50 238.53-6.66L238.53-6.66L238.53-6.66Q232.64 1.34 222.85 1.34L222.85 1.34L222.85 1.34Q216.26 1.34 213.09-2.72L213.09-2.72L213.09-2.72Q209.92-6.78 209.92-15.23ZM221.25-10.88L221.25-10.88L221.25-10.88Q221.25-4.42 223.36-4.42L223.36-4.42L223.36-4.42Q225.28-4.42 227.04-6.66L227.04-6.66L227.04-6.66Q228.80-8.90 230.21-12.67L230.21-12.67L230.21-12.67Q233.22-20.93 233.22-31.17L233.22-31.17L233.22-31.17Q233.22-34.62 232.67-36.19L232.67-36.19L232.67-36.19Q232.13-37.76 230.69-37.76L230.69-37.76L230.69-37.76Q229.25-37.76 227.55-35.26L227.55-35.26L227.55-35.26Q225.86-32.77 224.45-28.86L224.45-28.86L224.45-28.86Q221.25-19.97 221.25-10.88ZM279.62-16.83L279.62-16.83L279.62-16.83Q280.32-15.49 280.32-12.86L280.32-12.86L280.32-12.86Q280.32-10.24 278.37-8.42L278.37-8.42L278.37-8.42Q276.42-6.59 272.13-6.59L272.13-6.59L271.74-6.59L270.72 0L270.72 0Q268.99 1.28 265.92 1.28L265.92 1.28L265.92 1.28Q261.95 1.28 260.67-1.15L260.67-1.15L260.67-1.15Q260.16-2.05 260.16-2.82L260.16-2.82L260.16-2.82Q260.16-3.71 260.29-4.74L260.29-4.74L260.74-7.17L246.02-8.70L246.02-16.77L269.95-43.58L269.95-43.52L270.02-43.58L278.91-42.62L278.91-42.62Q275.90-30.34 273.34-16.19L273.34-16.19L274.82-16.19L274.82-16.19Q278.46-16.19 279.62-16.83ZM266.75-32.83L252.86-16.64L262.53-16.32L262.53-16.32Q264.64-25.73 266.75-32.83L266.75-32.83Z" fill="#ffc600"></path></g></g><style>text {
  font-size: 64px;
  font-family: Arial Black;
  dominant-baseline: central;
  text-anchor: middle;
}</style></svg>