<svg width="53" height="55" viewBox="0 0 53 55" fill="none" xmlns="http://www.w3.org/2000/svg">
<path d="M26.4793 4.09814C13.6796 4.09277 3.3125 14.8457 3.3125 28.1177C3.3125 38.6128 9.79775 47.5342 18.8295 50.8105C20.0458 51.1274 19.8595 50.2305 19.8595 49.6182V45.4556C12.8359 46.3096 12.5513 41.4863 12.0803 40.6807C11.1279 38.9941 8.87646 38.5644 9.54932 37.7588C11.1486 36.9048 12.779 37.9736 14.6682 40.8686C16.0346 42.9687 18.7001 42.6143 20.051 42.2651C20.346 41.0029 20.9774 39.875 21.847 38.9995C14.5698 37.646 11.5368 33.0376 11.5368 27.5591C11.5368 24.9004 12.3805 22.4565 14.0367 20.4853C12.9809 17.2358 14.1351 14.4536 14.2903 14.04C17.2975 13.7607 20.4236 16.2744 20.6669 16.4731C22.3749 15.9951 24.3262 15.7427 26.5104 15.7427C28.7049 15.7427 30.6613 16.0059 32.3849 16.4893C32.9697 16.0273 35.8682 13.8682 38.6631 14.1313C38.8132 14.5449 39.9415 17.2627 38.9478 20.4692C40.6247 22.4458 41.4787 24.9111 41.4787 27.5752C41.4787 33.0644 38.425 37.6782 31.1271 39.0102C31.7522 39.6482 32.2486 40.4089 32.5871 41.2482C32.9257 42.0874 33.0998 42.9882 33.0991 43.8979V49.9404C33.1405 50.4238 33.0991 50.9018 33.8755 50.9018C43.0418 47.6953 49.6409 38.7095 49.6409 28.123C49.6409 14.8457 39.2687 4.09814 26.4793 4.09814V4.09814Z" fill="rgba(0, 0, 0, 80%)"/>
</svg>
