<svg width="128" height="125" viewBox="0 0 128 125" fill="none" xmlns="http://www.w3.org/2000/svg">
<path d="M64.0005 0C28.6585 0 0 28.6535 0 64.0005C0 92.2775 18.338 116.268 43.7675 124.73C46.966 125.323 48.1405 123.342 48.1405 121.651C48.1405 120.125 48.0805 115.084 48.0535 109.737C30.2485 113.608 26.4915 102.185 26.4915 102.185C23.58 94.7875 19.385 92.82 19.385 92.82C13.5785 88.848 19.823 88.93 19.823 88.93C26.2495 89.381 29.6335 95.525 29.6335 95.525C35.342 105.309 44.606 102.481 48.258 100.845C48.8325 96.709 50.491 93.885 52.3215 92.287C38.106 90.669 23.1625 85.181 23.1625 60.658C23.1625 53.6705 25.6625 47.961 29.7565 43.479C29.092 41.867 26.9015 35.358 30.3765 26.542C30.3765 26.542 35.751 24.822 47.9815 33.1025C53.0865 31.6845 58.5615 30.9735 64.0005 30.949C69.4395 30.9735 74.919 31.684 80.0335 33.1025C92.249 24.8225 97.616 26.5425 97.616 26.5425C101.099 35.3575 98.908 41.8675 98.2435 43.479C102.347 47.961 104.83 53.6705 104.83 60.658C104.83 85.2395 89.858 90.652 75.6065 92.2365C77.902 94.2225 79.9475 98.1175 79.9475 104.089C79.9475 112.652 79.8735 119.543 79.8735 121.651C79.8735 123.355 81.0255 125.35 84.2695 124.721C109.685 116.25 128 92.2685 128 64.001C128 28.6535 99.3455 0 64.0005 0ZM23.9705 91.17C23.8295 91.488 23.329 91.5835 22.8735 91.365C22.409 91.1565 22.1485 90.723 22.2985 90.404C22.4365 90.0765 22.938 89.985 23.401 90.2045C23.866 90.4135 24.131 90.851 23.9705 91.17ZM27.1185 93.979C26.8135 94.262 26.2165 94.1305 25.8115 93.6835C25.393 93.2375 25.3145 92.6405 25.624 92.3535C25.939 92.0705 26.5175 92.203 26.937 92.649C27.356 93.1005 27.437 93.693 27.1185 93.979ZM29.2785 97.573C28.886 97.8455 28.245 97.59 27.8485 97.021C27.4565 96.452 27.4565 95.7695 27.857 95.496C28.2545 95.2225 28.886 95.4685 29.2875 96.0335C29.6785 96.612 29.6785 97.2945 29.278 97.5735L29.2785 97.573ZM32.9305 101.735C32.58 102.122 31.8325 102.019 31.2855 101.491C30.726 100.975 30.5705 100.242 30.9225 99.8555C31.2775 99.4675 32.029 99.5765 32.58 100.101C33.135 100.616 33.305 101.353 32.9305 101.735ZM37.6515 103.141C37.4965 103.642 36.7765 103.87 36.052 103.657C35.328 103.437 34.8545 102.851 35.0005 102.344C35.151 101.839 35.874 101.602 36.604 101.83C37.327 102.048 37.802 102.631 37.6515 103.141V103.141ZM43.0235 103.737C43.0415 104.264 42.427 104.702 41.666 104.712C40.901 104.729 40.2815 104.302 40.273 103.782C40.273 103.249 40.874 102.816 41.6395 102.803C42.4005 102.788 43.0235 103.212 43.0235 103.737V103.737ZM48.301 103.535C48.392 104.05 47.8635 104.578 47.1075 104.719C46.365 104.855 45.677 104.537 45.5825 104.026C45.4905 103.498 46.029 102.97 46.7705 102.833C47.5275 102.702 48.2045 103.011 48.301 103.535Z" fill="#161614"/>
</svg>
